<svg width="700" height="510" viewBox="0 0 700 510" fill="none" xmlns="http://www.w3.org/2000/svg">
<path d="M0 50C233.333 -16.6667 466.667 -16.6667 700 50L680 110C460 50 240 50 20 110L0 50Z" fill="#C41E3A"/>
<path d="M175 60H125C116.716 60 110 66.7157 110 75V495C110 503.284 116.716 510 125 510H175C183.284 510 190 503.284 190 495V75C190 66.7157 183.284 60 175 60Z" fill="#C41E3A"/>
<path d="M575 60H525C516.716 60 510 66.7157 510 75V495C510 503.284 516.716 510 525 510H575C583.284 510 590 503.284 590 495V75C590 66.7157 583.284 60 575 60Z" fill="#C41E3A"/>
<path d="M550 150H150C144.477 150 140 154.477 140 160V190C140 195.523 144.477 200 150 200H550C555.523 200 560 195.523 560 190V160C560 154.477 555.523 150 550 150Z" fill="#C41E3A"/>
</svg>
