<svg width="700" height="700" viewBox="0 0 700 700" fill="none" xmlns="http://www.w3.org/2000/svg">
<path d="M0 145C233.333 78.3333 466.667 78.3333 700 145L680 205C460 145 240 145 20 205L0 145Z" fill="#C41E3A"/>
<path d="M175 155H125C116.716 155 110 161.716 110 170V590C110 598.284 116.716 605 125 605H175C183.284 605 190 598.284 190 590V170C190 161.716 183.284 155 175 155Z" fill="#C41E3A"/>
<path d="M575 155H525C516.716 155 510 161.716 510 170V590C510 598.284 516.716 605 525 605H575C583.284 605 590 598.284 590 590V170C590 161.716 583.284 155 575 155Z" fill="#C41E3A"/>
<path d="M550 245H150C144.477 245 140 249.477 140 255V285C140 290.523 144.477 295 150 295H550C555.523 295 560 290.523 560 285V255C560 249.477 555.523 245 550 245Z" fill="#C41E3A"/>
</svg>
